<svg version="1.1" xmlns="http://www.w3.org/2000/svg" viewBox="0 0 1283.6034019903127 584.0625" width="2567.2068039806254" height="1168.125">
  <!-- svg-source:excalidraw -->
  
  <defs>
    <style class="style-fonts">
      @font-face {
        font-family: "Virgil";
        src: url("https://excalidraw.com/Virgil.woff2");
      }
      @font-face {
        font-family: "Cascadia";
        src: url("https://excalidraw.com/Cascadia.woff2");
      }
      @font-face {
        font-family: "Assistant";
        src: url("https://excalidraw.com/Assistant-Regular.woff2");
      }
    </style>
    
  </defs>
  <rect x="0" y="0" width="1283.6034019903127" height="584.0625" fill="#ffffff"></rect><g transform="translate(1164.707752153824 38.37109375) rotate(0 15.6099853515625 12.5)"><text x="0" y="0" font-family="Virgil, Segoe UI Emoji" font-size="20px" fill="#1e1e1e" text-anchor="start" style="white-space: pre;" direction="ltr" dominant-baseline="text-before-edge">null</text></g><g transform="translate(751.1765021538241 10) rotate(0 140.03192138671875 120)"><text x="0" y="0" font-family="Virgil, Segoe UI Emoji" font-size="16px" fill="#1e1e1e" text-anchor="start" style="white-space: pre;" direction="ltr" dominant-baseline="text-before-edge">[Function: Object]</text><text x="0" y="20" font-family="Virgil, Segoe UI Emoji" font-size="16px" fill="#1e1e1e" text-anchor="start" style="white-space: pre;" direction="ltr" dominant-baseline="text-before-edge">{</text><text x="0" y="40" font-family="Virgil, Segoe UI Emoji" font-size="16px" fill="#1e1e1e" text-anchor="start" style="white-space: pre;" direction="ltr" dominant-baseline="text-before-edge">  length: 1,</text><text x="0" y="60" font-family="Virgil, Segoe UI Emoji" font-size="16px" fill="#1e1e1e" text-anchor="start" style="white-space: pre;" direction="ltr" dominant-baseline="text-before-edge">  prototype: {</text><text x="0" y="80" font-family="Virgil, Segoe UI Emoji" font-size="16px" fill="#1e1e1e" text-anchor="start" style="white-space: pre;" direction="ltr" dominant-baseline="text-before-edge">    constructor: [Function: Object],</text><text x="0" y="100" font-family="Virgil, Segoe UI Emoji" font-size="16px" fill="#1e1e1e" text-anchor="start" style="white-space: pre;" direction="ltr" dominant-baseline="text-before-edge">    ...,</text><text x="0" y="120" font-family="Virgil, Segoe UI Emoji" font-size="16px" fill="#1e1e1e" text-anchor="start" style="white-space: pre;" direction="ltr" dominant-baseline="text-before-edge">    [[Prototype]]</text><text x="0" y="140" font-family="Virgil, Segoe UI Emoji" font-size="16px" fill="#1e1e1e" text-anchor="start" style="white-space: pre;" direction="ltr" dominant-baseline="text-before-edge">  },</text><text x="0" y="160" font-family="Virgil, Segoe UI Emoji" font-size="16px" fill="#1e1e1e" text-anchor="start" style="white-space: pre;" direction="ltr" dominant-baseline="text-before-edge">  assign: [Function: assign],</text><text x="0" y="180" font-family="Virgil, Segoe UI Emoji" font-size="16px" fill="#1e1e1e" text-anchor="start" style="white-space: pre;" direction="ltr" dominant-baseline="text-before-edge">  ...,</text><text x="0" y="200" font-family="Virgil, Segoe UI Emoji" font-size="16px" fill="#1e1e1e" text-anchor="start" style="white-space: pre;" direction="ltr" dominant-baseline="text-before-edge">  [[Prototype]]</text><text x="0" y="220" font-family="Virgil, Segoe UI Emoji" font-size="16px" fill="#1e1e1e" text-anchor="start" style="white-space: pre;" direction="ltr" dominant-baseline="text-before-edge">}</text></g><g stroke-linecap="round"><g transform="translate(902.0085334038241 139.11328125) rotate(0 135.848232452209 -37.72236633300781)"><path d="M0 0 C31.97 -1.48, 146.54 3.67, 191.82 -8.9 C237.11 -21.48, 258.38 -64.35, 271.7 -75.44 M0 0 C31.97 -1.48, 146.54 3.67, 191.82 -8.9 C237.11 -21.48, 258.38 -64.35, 271.7 -75.44" stroke="#1971c2" stroke-width="2" fill="none"></path></g><g transform="translate(902.0085334038241 139.11328125) rotate(0 135.848232452209 -37.72236633300781)"><path d="M262.83 -52.07 C266.01 -60.45, 269.18 -68.82, 271.7 -75.44 M262.83 -52.07 C264.97 -57.71, 267.11 -63.36, 271.7 -75.44" stroke="#1971c2" stroke-width="2" fill="none"></path></g><g transform="translate(902.0085334038241 139.11328125) rotate(0 135.848232452209 -37.72236633300781)"><path d="M249.88 -63.24 C257.7 -67.61, 265.51 -71.99, 271.7 -75.44 M249.88 -63.24 C255.15 -66.19, 260.41 -69.13, 271.7 -75.44" stroke="#1971c2" stroke-width="2" fill="none"></path></g></g><mask></mask><g transform="translate(460.7155646538241 256.66015625) rotate(0 172.3839111328125 110)"><text x="0" y="0" font-family="Virgil, Segoe UI Emoji" font-size="16px" fill="#1e1e1e" text-anchor="start" style="white-space: pre;" direction="ltr" dominant-baseline="text-before-edge">[Function: Timepiece]</text><text x="0" y="20" font-family="Virgil, Segoe UI Emoji" font-size="16px" fill="#1e1e1e" text-anchor="start" style="white-space: pre;" direction="ltr" dominant-baseline="text-before-edge">{</text><text x="0" y="40" font-family="Virgil, Segoe UI Emoji" font-size="16px" fill="#1e1e1e" text-anchor="start" style="white-space: pre;" direction="ltr" dominant-baseline="text-before-edge">  length: 0,</text><text x="0" y="60" font-family="Virgil, Segoe UI Emoji" font-size="16px" fill="#1e1e1e" text-anchor="start" style="white-space: pre;" direction="ltr" dominant-baseline="text-before-edge">  name: 'Timepiece',</text><text x="0" y="80" font-family="Virgil, Segoe UI Emoji" font-size="16px" fill="#1e1e1e" text-anchor="start" style="white-space: pre;" direction="ltr" dominant-baseline="text-before-edge">  prototype: {</text><text x="0" y="100" font-family="Virgil, Segoe UI Emoji" font-size="16px" fill="#1e1e1e" text-anchor="start" style="white-space: pre;" direction="ltr" dominant-baseline="text-before-edge">    constructor: [Function: Timepiece]</text><text x="0" y="120" font-family="Virgil, Segoe UI Emoji" font-size="16px" fill="#1e1e1e" text-anchor="start" style="white-space: pre;" direction="ltr" dominant-baseline="text-before-edge">    getCurrentTime: [Function (anonymous)],</text><text x="0" y="140" font-family="Virgil, Segoe UI Emoji" font-size="16px" fill="#1e1e1e" text-anchor="start" style="white-space: pre;" direction="ltr" dominant-baseline="text-before-edge">    [[Prototype]] </text><text x="0" y="160" font-family="Virgil, Segoe UI Emoji" font-size="16px" fill="#1e1e1e" text-anchor="start" style="white-space: pre;" direction="ltr" dominant-baseline="text-before-edge">  },</text><text x="0" y="180" font-family="Virgil, Segoe UI Emoji" font-size="16px" fill="#1e1e1e" text-anchor="start" style="white-space: pre;" direction="ltr" dominant-baseline="text-before-edge">  [[Prototype]]</text><text x="0" y="200" font-family="Virgil, Segoe UI Emoji" font-size="16px" fill="#1e1e1e" text-anchor="start" style="white-space: pre;" direction="ltr" dominant-baseline="text-before-edge">   </text></g><g transform="translate(938.3796271538241 289.515625) rotate(0 145.95193481445312 110)"><text x="0" y="0" font-family="Virgil, Segoe UI Emoji" font-size="16px" fill="#1e1e1e" text-anchor="start" style="white-space: pre;" direction="ltr" dominant-baseline="text-before-edge">[Function: Function]</text><text x="0" y="20" font-family="Virgil, Segoe UI Emoji" font-size="16px" fill="#1e1e1e" text-anchor="start" style="white-space: pre;" direction="ltr" dominant-baseline="text-before-edge">{</text><text x="0" y="40" font-family="Virgil, Segoe UI Emoji" font-size="16px" fill="#1e1e1e" text-anchor="start" style="white-space: pre;" direction="ltr" dominant-baseline="text-before-edge">  length: 1,</text><text x="0" y="60" font-family="Virgil, Segoe UI Emoji" font-size="16px" fill="#1e1e1e" text-anchor="start" style="white-space: pre;" direction="ltr" dominant-baseline="text-before-edge">  name: 'Function',</text><text x="0" y="80" font-family="Virgil, Segoe UI Emoji" font-size="16px" fill="#1e1e1e" text-anchor="start" style="white-space: pre;" direction="ltr" dominant-baseline="text-before-edge">  prototype: {</text><text x="0" y="100" font-family="Virgil, Segoe UI Emoji" font-size="16px" fill="#1e1e1e" text-anchor="start" style="white-space: pre;" direction="ltr" dominant-baseline="text-before-edge">    ...,</text><text x="0" y="120" font-family="Virgil, Segoe UI Emoji" font-size="16px" fill="#1e1e1e" text-anchor="start" style="white-space: pre;" direction="ltr" dominant-baseline="text-before-edge">    constructor: [Function: Function],</text><text x="0" y="140" font-family="Virgil, Segoe UI Emoji" font-size="16px" fill="#1e1e1e" text-anchor="start" style="white-space: pre;" direction="ltr" dominant-baseline="text-before-edge">    [[Prototype]]</text><text x="0" y="160" font-family="Virgil, Segoe UI Emoji" font-size="16px" fill="#1e1e1e" text-anchor="start" style="white-space: pre;" direction="ltr" dominant-baseline="text-before-edge">  },</text><text x="0" y="180" font-family="Virgil, Segoe UI Emoji" font-size="16px" fill="#1e1e1e" text-anchor="start" style="white-space: pre;" direction="ltr" dominant-baseline="text-before-edge">  [[Prototype]]</text><text x="0" y="200" font-family="Virgil, Segoe UI Emoji" font-size="16px" fill="#1e1e1e" text-anchor="start" style="white-space: pre;" direction="ltr" dominant-baseline="text-before-edge">}</text></g><g stroke-linecap="round"><g transform="translate(596.3757209038241 446.89453125) rotate(0 177.8515625 -32.88671875)"><path d="M0 0 C2.05 -0.77, -14.44 0.3, 12.33 -4.63 C39.1 -9.55, 125.04 -23.83, 160.62 -29.57 C196.2 -35.31, 206.89 -37.78, 225.8 -39.07 C244.72 -40.36, 257.16 -33.84, 274.08 -37.31 C291 -40.79, 313.71 -55.17, 327.31 -59.92 C340.92 -64.66, 350.97 -64.8, 355.7 -65.77 M0 0 C2.05 -0.77, -14.44 0.3, 12.33 -4.63 C39.1 -9.55, 125.04 -23.83, 160.62 -29.57 C196.2 -35.31, 206.89 -37.78, 225.8 -39.07 C244.72 -40.36, 257.16 -33.84, 274.08 -37.31 C291 -40.79, 313.71 -55.17, 327.31 -59.92 C340.92 -64.66, 350.97 -64.8, 355.7 -65.77" stroke="#1971c2" stroke-width="2" fill="none"></path></g><g transform="translate(596.3757209038241 446.89453125) rotate(0 177.8515625 -32.88671875)"><path d="M342.91 -58.96 C346.51 -60.87, 350.1 -62.79, 355.7 -65.77 M342.91 -58.96 C345.79 -60.49, 348.67 -62.03, 355.7 -65.77" stroke="#1971c2" stroke-width="2" fill="none"></path></g><g transform="translate(596.3757209038241 446.89453125) rotate(0 177.8515625 -32.88671875)"><path d="M341.52 -68.77 C345.51 -67.93, 349.5 -67.09, 355.7 -65.77 M341.52 -68.77 C344.71 -68.1, 347.91 -67.42, 355.7 -65.77" stroke="#1971c2" stroke-width="2" fill="none"></path></g></g><mask></mask><g stroke-linecap="round"><g transform="translate(612.2233771538241 405.78125) rotate(0 111.5703125 -161.15234375)"><path d="M0 0 C15.92 -0.03, 58.34 4.24, 95.53 -0.18 C132.72 -4.59, 224.28 9.3, 223.14 -26.51 C222 -62.32, 100.82 -165.74, 88.71 -215.04 C76.59 -264.33, 140.15 -304.43, 150.44 -322.3 M0 0 C15.92 -0.03, 58.34 4.24, 95.53 -0.18 C132.72 -4.59, 224.28 9.3, 223.14 -26.51 C222 -62.32, 100.82 -165.74, 88.71 -215.04 C76.59 -264.33, 140.15 -304.43, 150.44 -322.3" stroke="#1971c2" stroke-width="2" fill="none"></path></g><g transform="translate(612.2233771538241 405.78125) rotate(0 111.5703125 -161.15234375)"><path d="M140.73 -299.27 C143.05 -304.76, 145.36 -310.26, 150.44 -322.3 M140.73 -299.27 C143.36 -305.49, 145.98 -311.72, 150.44 -322.3" stroke="#1971c2" stroke-width="2" fill="none"></path></g><g transform="translate(612.2233771538241 405.78125) rotate(0 111.5703125 -161.15234375)"><path d="M128.19 -310.9 C133.5 -313.62, 138.8 -316.34, 150.44 -322.3 M128.19 -310.9 C134.21 -313.98, 140.22 -317.06, 150.44 -322.3" stroke="#1971c2" stroke-width="2" fill="none"></path></g></g><mask></mask><g stroke-linecap="round"><g transform="translate(887.8132209038241 222.37109375) rotate(0 99.587890625 79.56640625)"><path d="M0 0 C32.94 6.85, 164.44 16.67, 197.63 41.09 C230.83 65.52, 204.93 126.86, 199.18 146.53 C193.42 166.2, 169.13 157.03, 163.13 159.13 M0 0 C32.94 6.85, 164.44 16.67, 197.63 41.09 C230.83 65.52, 204.93 126.86, 199.18 146.53 C193.42 166.2, 169.13 157.03, 163.13 159.13" stroke="#1971c2" stroke-width="2" fill="none"></path></g><g transform="translate(887.8132209038241 222.37109375) rotate(0 99.587890625 79.56640625)"><path d="M181.12 152.74 C175.29 154.81, 169.47 156.88, 163.13 159.13 M181.12 152.74 C176.95 154.22, 172.78 155.7, 163.13 159.13" stroke="#1971c2" stroke-width="2" fill="none"></path></g><g transform="translate(887.8132209038241 222.37109375) rotate(0 99.587890625 79.56640625)"><path d="M181.02 165.8 C175.23 163.64, 169.44 161.48, 163.13 159.13 M181.02 165.8 C176.87 164.25, 172.73 162.71, 163.13 159.13" stroke="#1971c2" stroke-width="2" fill="none"></path></g></g><mask></mask><g stroke-linecap="round"><g transform="translate(1092.883533403824 441.1171875) rotate(0 -26.158203125 -181.63671875)"><path d="M0 0 C27.63 -5.1, 170.32 27.17, 165.79 -30.57 C161.25 -88.32, 36.75 -291.01, -27.23 -346.46 C-91.21 -401.91, -186.29 -360.47, -218.1 -363.27 M0 0 C27.63 -5.1, 170.32 27.17, 165.79 -30.57 C161.25 -88.32, 36.75 -291.01, -27.23 -346.46 C-91.21 -401.91, -186.29 -360.47, -218.1 -363.27" stroke="#1971c2" stroke-width="2" fill="none"></path></g><g transform="translate(1092.883533403824 441.1171875) rotate(0 -26.158203125 -181.63671875)"><path d="M-195.91 -374.78 C-204.3 -370.43, -212.69 -366.08, -218.1 -363.27 M-195.91 -374.78 C-201.42 -371.92, -206.94 -369.06, -218.1 -363.27" stroke="#1971c2" stroke-width="2" fill="none"></path></g><g transform="translate(1092.883533403824 441.1171875) rotate(0 -26.158203125 -181.63671875)"><path d="M-193.7 -357.82 C-202.93 -359.88, -212.15 -361.94, -218.1 -363.27 M-193.7 -357.82 C-199.77 -359.18, -205.83 -360.53, -218.1 -363.27" stroke="#1971c2" stroke-width="2" fill="none"></path></g></g><mask></mask><g stroke-linecap="round"><g transform="translate(1072.473377153824 479.79296875) rotate(0 100.53515625 -51.416015625)"><path d="M0 0 C33.51 -13.11, 197.55 -61.49, 201.07 -78.63 C204.59 -95.77, 51.13 -98.8, 21.14 -102.83 M0 0 C33.51 -13.11, 197.55 -61.49, 201.07 -78.63 C204.59 -95.77, 51.13 -98.8, 21.14 -102.83" stroke="#1971c2" stroke-width="2" fill="none"></path></g><g transform="translate(1072.473377153824 479.79296875) rotate(0 100.53515625 -51.416015625)"><path d="M45.18 -109.69 C38.46 -107.77, 31.74 -105.86, 21.14 -102.83 M45.18 -109.69 C37.31 -107.44, 29.43 -105.2, 21.14 -102.83" stroke="#1971c2" stroke-width="2" fill="none"></path></g><g transform="translate(1072.473377153824 479.79296875) rotate(0 100.53515625 -51.416015625)"><path d="M43.96 -92.63 C37.58 -95.48, 31.21 -98.33, 21.14 -102.83 M43.96 -92.63 C36.49 -95.97, 29.01 -99.31, 21.14 -102.83" stroke="#1971c2" stroke-width="2" fill="none"></path></g></g><mask></mask><g transform="translate(40.47337715382412 260.59765625) rotate(0 158.43991088867188 90)"><text x="0" y="0" font-family="Virgil, Segoe UI Emoji" font-size="16px" fill="#1e1e1e" text-anchor="start" style="white-space: pre;" direction="ltr" dominant-baseline="text-before-edge">[Function: WristWatch]</text><text x="0" y="20" font-family="Virgil, Segoe UI Emoji" font-size="16px" fill="#1e1e1e" text-anchor="start" style="white-space: pre;" direction="ltr" dominant-baseline="text-before-edge">{</text><text x="0" y="40" font-family="Virgil, Segoe UI Emoji" font-size="16px" fill="#1e1e1e" text-anchor="start" style="white-space: pre;" direction="ltr" dominant-baseline="text-before-edge">  length: 0,</text><text x="0" y="60" font-family="Virgil, Segoe UI Emoji" font-size="16px" fill="#1e1e1e" text-anchor="start" style="white-space: pre;" direction="ltr" dominant-baseline="text-before-edge">  name: 'WristWatch',</text><text x="0" y="80" font-family="Virgil, Segoe UI Emoji" font-size="16px" fill="#1e1e1e" text-anchor="start" style="white-space: pre;" direction="ltr" dominant-baseline="text-before-edge">  prototype: {</text><text x="0" y="100" font-family="Virgil, Segoe UI Emoji" font-size="16px" fill="#1e1e1e" text-anchor="start" style="white-space: pre;" direction="ltr" dominant-baseline="text-before-edge">    putOnWrist: [Function (anonymous)],</text><text x="0" y="120" font-family="Virgil, Segoe UI Emoji" font-size="16px" fill="#1e1e1e" text-anchor="start" style="white-space: pre;" direction="ltr" dominant-baseline="text-before-edge">    constructor: [Function: WristWatch],</text><text x="0" y="140" font-family="Virgil, Segoe UI Emoji" font-size="16px" fill="#1e1e1e" text-anchor="start" style="white-space: pre;" direction="ltr" dominant-baseline="text-before-edge">    [[Prototype]]</text><text x="0" y="160" font-family="Virgil, Segoe UI Emoji" font-size="16px" fill="#1e1e1e" text-anchor="start" style="white-space: pre;" direction="ltr" dominant-baseline="text-before-edge">}</text></g><g stroke-linecap="round"><g transform="translate(190.44603340382412 410.6875) rotate(0 140.23828125 -30.369140625)"><path d="M0 0 C28.45 -1.1, 123.93 3.5, 170.68 -6.62 C217.43 -16.74, 262.18 -51.72, 280.48 -60.74 M0 0 C28.45 -1.1, 123.93 3.5, 170.68 -6.62 C217.43 -16.74, 262.18 -51.72, 280.48 -60.74" stroke="#1971c2" stroke-width="2" fill="none"></path></g><g transform="translate(190.44603340382412 410.6875) rotate(0 140.23828125 -30.369140625)"><path d="M264.72 -41.33 C270.81 -48.83, 276.9 -56.33, 280.48 -60.74 M264.72 -41.33 C269.25 -46.9, 273.77 -52.48, 280.48 -60.74" stroke="#1971c2" stroke-width="2" fill="none"></path></g><g transform="translate(190.44603340382412 410.6875) rotate(0 140.23828125 -30.369140625)"><path d="M255.93 -56 C265.41 -57.83, 274.9 -59.66, 280.48 -60.74 M255.93 -56 C262.98 -57.36, 270.03 -58.72, 280.48 -60.74" stroke="#1971c2" stroke-width="2" fill="none"></path></g></g><mask></mask><g transform="translate(42.91868965382412 491.8359375) rotate(0 68.98394012451172 40)"><text x="0" y="0" font-family="Virgil, Segoe UI Emoji" font-size="16px" fill="#1e1e1e" text-anchor="start" style="white-space: pre;" direction="ltr" dominant-baseline="text-before-edge">sampleWristWatch</text><text x="0" y="20" font-family="Virgil, Segoe UI Emoji" font-size="16px" fill="#1e1e1e" text-anchor="start" style="white-space: pre;" direction="ltr" dominant-baseline="text-before-edge">{</text><text x="0" y="40" font-family="Virgil, Segoe UI Emoji" font-size="16px" fill="#1e1e1e" text-anchor="start" style="white-space: pre;" direction="ltr" dominant-baseline="text-before-edge">  [[Prototype]]</text><text x="0" y="60" font-family="Virgil, Segoe UI Emoji" font-size="16px" fill="#1e1e1e" text-anchor="start" style="white-space: pre;" direction="ltr" dominant-baseline="text-before-edge">}</text></g><g stroke-linecap="round"><g transform="translate(52.57884590382412 539.8515625) rotate(0 -19.162109375 -91.765625)"><path d="M0 0 C-6.3 -4.17, -31.4 0.12, -37.79 -25.05 C-44.18 -50.22, -43.99 -124.61, -38.32 -151.02 C-32.65 -177.44, -9.53 -178.11, -3.77 -183.53 M0 0 C-6.3 -4.17, -31.4 0.12, -37.79 -25.05 C-44.18 -50.22, -43.99 -124.61, -38.32 -151.02 C-32.65 -177.44, -9.53 -178.11, -3.77 -183.53" stroke="#1971c2" stroke-width="2" fill="none"></path></g><g transform="translate(52.57884590382412 539.8515625) rotate(0 -19.162109375 -91.765625)"><path d="M-20.15 -166.38 C-14.57 -172.23, -8.98 -178.08, -3.77 -183.53 M-20.15 -166.38 C-16.58 -170.12, -13.01 -173.86, -3.77 -183.53" stroke="#1971c2" stroke-width="2" fill="none"></path></g><g transform="translate(52.57884590382412 539.8515625) rotate(0 -19.162109375 -91.765625)"><path d="M-27.35 -180.92 C-19.31 -181.81, -11.26 -182.7, -3.77 -183.53 M-27.35 -180.92 C-22.21 -181.49, -17.07 -182.06, -3.77 -183.53" stroke="#1971c2" stroke-width="2" fill="none"></path></g></g><mask></mask><g transform="translate(470.2433432793124 494.0625) rotate(0 62.559959411621094 40)"><text x="0" y="0" font-family="Virgil, Segoe UI Emoji" font-size="16px" fill="#1e1e1e" text-anchor="start" style="white-space: pre;" direction="ltr" dominant-baseline="text-before-edge">sampleClock</text><text x="0" y="20" font-family="Virgil, Segoe UI Emoji" font-size="16px" fill="#1e1e1e" text-anchor="start" style="white-space: pre;" direction="ltr" dominant-baseline="text-before-edge">{</text><text x="0" y="40" font-family="Virgil, Segoe UI Emoji" font-size="16px" fill="#1e1e1e" text-anchor="start" style="white-space: pre;" direction="ltr" dominant-baseline="text-before-edge">  [[Prototype]]</text><text x="0" y="60" font-family="Virgil, Segoe UI Emoji" font-size="16px" fill="#1e1e1e" text-anchor="start" style="white-space: pre;" direction="ltr" dominant-baseline="text-before-edge">}</text></g><g stroke-linecap="round"><g transform="translate(481.04014385573623 541.47265625) rotate(0 -18.89453125 -91.765625)"><path d="M0 0 C-6.3 -4.17, -32.57 -0.95, -37.79 -25.05 C-43.01 -49.15, -37 -118.19, -31.33 -144.61 C-25.66 -171.02, -8.37 -177.04, -3.77 -183.53 M0 0 C-6.3 -4.17, -32.57 -0.95, -37.79 -25.05 C-43.01 -49.15, -37 -118.19, -31.33 -144.61 C-25.66 -171.02, -8.37 -177.04, -3.77 -183.53" stroke="#1971c2" stroke-width="2" fill="none"></path></g><g transform="translate(481.04014385573623 541.47265625) rotate(0 -18.89453125 -91.765625)"><path d="M-14.87 -162.42 C-11.64 -168.56, -8.42 -174.69, -3.77 -183.53 M-14.87 -162.42 C-12.26 -167.38, -9.66 -172.34, -3.77 -183.53" stroke="#1971c2" stroke-width="2" fill="none"></path></g><g transform="translate(481.04014385573623 541.47265625) rotate(0 -18.89453125 -91.765625)"><path d="M-25.84 -174.49 C-19.43 -177.12, -13.01 -179.75, -3.77 -183.53 M-25.84 -174.49 C-20.66 -176.62, -15.47 -178.74, -3.77 -183.53" stroke="#1971c2" stroke-width="2" fill="none"></path></g></g><mask></mask></svg>